<svg xmlns="http://www.w3.org/2000/svg" width="26" height="22" viewBox="0 0 26 22">
  <defs>
    <style>
      .cls-1 {
        fill: #fff;
        fill-rule: evenodd;
      }
    </style>
  </defs>
  <path id="_" data-name="" class="cls-1" d="M18.543,0.437a5.958,5.958,0,0,0-3.312.988,7.29,7.29,0,0,0-1.249,1.191,6.055,6.055,0,0,0-.9,1.482,6.083,6.083,0,0,0-.9-1.482,7.326,7.326,0,0,0-1.249-1.191A5.958,5.958,0,0,0,7.619.437,5.724,5.724,0,0,0,5.324.9,6.027,6.027,0,0,0,2.158,4.069a5.712,5.712,0,0,0-.465,2.3,5.86,5.86,0,0,0,.116,1.162A9.117,9.117,0,0,0,2.1,8.63a6.062,6.062,0,0,0,.552.988,5.694,5.694,0,0,0,.668.814l9.762,9.82,9.587-9.645a8.083,8.083,0,0,0,.755-0.872,5.082,5.082,0,0,0,.581-0.988,6.7,6.7,0,0,0,.349-1.162,6.223,6.223,0,0,0,.116-1.22,5.727,5.727,0,0,0-.465-2.3A6.027,6.027,0,0,0,20.839.9a5.728,5.728,0,0,0-2.3-.465h0Zm0-.988a6.619,6.619,0,0,1,2.7.552,7.144,7.144,0,0,1,2.179,1.482,6.31,6.31,0,0,1,1.511,2.179,7.077,7.077,0,0,1,.378,4.1A9.816,9.816,0,0,1,24.935,9.1a11.982,11.982,0,0,1-.668,1.162,5.15,5.15,0,0,1-.9,1.046L13.081,21.646,2.622,11.129a5.8,5.8,0,0,1-.813-1.017A9.788,9.788,0,0,1,1.17,8.921,6.172,6.172,0,0,1,.821,7.672,7.552,7.552,0,0,1,.7,6.364a6.931,6.931,0,0,1,.523-2.7A6.3,6.3,0,0,1,2.739,1.483,7.123,7.123,0,0,1,4.918,0a6.613,6.613,0,0,1,2.7-.552,7.346,7.346,0,0,1,1.6.174A6.408,6.408,0,0,1,10.7.147a7.2,7.2,0,0,1,1.307.843,6,6,0,0,1,1.075,1.133A5.974,5.974,0,0,1,14.156.989,7.2,7.2,0,0,1,15.464.147a6.406,6.406,0,0,1,1.482-.523,7.339,7.339,0,0,1,1.6-.174h0Z"/>
</svg>
