<svg xmlns="http://www.w3.org/2000/svg" width="20" height="30" viewBox="0 0 20 30">
  <defs>
    <style>
      .cls-1 {
        fill: #fff;
        fill-rule: evenodd;
      }
    </style>
  </defs>
  <path id="_" data-name="" class="cls-1" d="M20.017,10.807a9.451,9.451,0,0,1-.29,2.353,10.968,10.968,0,0,1-.814,2.179A10.76,10.76,0,0,1,17.664,17.2a8.2,8.2,0,0,1-1.656,1.511,5.973,5.973,0,0,0-.639.61,5.69,5.69,0,0,0-.639.843,6.3,6.3,0,0,0-.494,1.162,4.565,4.565,0,0,0-.2,1.395v6.973H6.13V22.718a4.117,4.117,0,0,0-.2-1.307q-0.2-.61-0.436-1.133a7.479,7.479,0,0,0-.61-0.842,4.585,4.585,0,0,0-.61-0.61H4.213A0.1,0.1,0,0,0,4.1,18.709,11.1,11.1,0,0,1,2.5,17.14a10.71,10.71,0,0,1-1.249-1.859A9.6,9.6,0,0,1,.436,13.16,9.732,9.732,0,0,1,.93,6.972a10.822,10.822,0,0,1,2.121-3.2,10.828,10.828,0,0,1,3.2-2.121A9.5,9.5,0,0,1,10.081.871a9.5,9.5,0,0,1,3.835.784,10.839,10.839,0,0,1,3.2,2.121,10.84,10.84,0,0,1,2.121,3.2,9.5,9.5,0,0,1,.784,3.835h0ZM7.118,28.645h5.927V25.682H7.118v2.963Zm2.963-16.851a0.992,0.992,0,1,0-.7-0.29,0.95,0.95,0,0,0,.7.29h0Zm5.346,6.159a8.427,8.427,0,0,0,1.54-1.453,7.991,7.991,0,0,0,1.075-1.685,9.789,9.789,0,0,0,.726-1.947,8.243,8.243,0,0,0,.261-2.063A8.461,8.461,0,0,0,18.3,7.32a9.233,9.233,0,0,0-1.888-2.789,9,9,0,0,0-2.847-1.917,8.758,8.758,0,0,0-3.486-.7,8.752,8.752,0,0,0-3.486.7A8.992,8.992,0,0,0,3.748,4.531,9.2,9.2,0,0,0,1.859,7.32a8.447,8.447,0,0,0-.726,3.486,8.247,8.247,0,0,0,.261,2.063,10.8,10.8,0,0,0,.668,1.888A8.448,8.448,0,0,0,3.2,16.472,10.222,10.222,0,0,0,4.678,17.9a0.052,0.052,0,0,1,.058.058c0.038,0,.058.01,0.058,0.029s0.019,0.029.058,0.029V18.07a4.9,4.9,0,0,1,.813.755,5,5,0,0,1,.7,1.046,5.344,5.344,0,0,1,.552,1.307,5.7,5.7,0,0,1,.2,1.54v1.976h2.44V12.724a1.3,1.3,0,0,1-.552-0.261,5.131,5.131,0,0,1-.494-0.436,2.1,2.1,0,0,1-.291-0.552,2.009,2.009,0,0,1,.029-1.424,1.995,1.995,0,0,1,2.586-1.075,2.081,2.081,0,0,1,1.075,1.075,2.008,2.008,0,0,1,.029,1.424,2.126,2.126,0,0,1-.29.552,5.238,5.238,0,0,1-.494.436,1.3,1.3,0,0,1-.552.261v11.97h2.441V22.718a5.893,5.893,0,0,1,.2-1.6,6.506,6.506,0,0,1,.552-1.366,7.276,7.276,0,0,1,.755-1.046,4.826,4.826,0,0,1,.813-0.755h0.058Z"/>
</svg>
