<svg xmlns="http://www.w3.org/2000/svg" width="28" height="28" viewBox="0 0 28 28">
  <defs>
    <style>
      .cls-1 {
        fill: #fff;
        fill-rule: evenodd;
      }
    </style>
  </defs>
  <path id="_" data-name="" class="cls-1" d="M26.69,23.345a2.261,2.261,0,0,1,.523.813,2.636,2.636,0,0,1,.174.93,2.559,2.559,0,0,1-.174.959,2.322,2.322,0,0,1-.523.784,2.953,2.953,0,0,1-.378.32,3.356,3.356,0,0,1-.436.262l-0.465.116a2.2,2.2,0,0,1-.523.058,1.937,1.937,0,0,1-.465-0.058l-0.465-.116a3.239,3.239,0,0,1-.436-0.262,2.892,2.892,0,0,1-.378-0.32l-5.23-5.23-0.7.7-0.7-.7,2.092-2.092-3.544-3.545-4.184,4.242a6.048,6.048,0,0,1,.29,1.424,4.859,4.859,0,0,1-.116,1.482,5.626,5.626,0,0,1-.523,1.336,5.055,5.055,0,0,1-.872,1.162,3.19,3.19,0,0,1-.784.668q-0.436.262-.9,0.494a7.863,7.863,0,0,1-.959.291A4.4,4.4,0,0,1,6,27.18a4.845,4.845,0,0,1-.552-0.029,3.621,3.621,0,0,1-.494-0.087,4.467,4.467,0,0,1-.552-0.145,3.648,3.648,0,0,1-.494-0.2l-0.639-.29L5.54,24.159v-1.8H3.8L1.472,24.682l-0.291-.639A6.141,6.141,0,0,1,.8,22.5a4.56,4.56,0,0,1,.087-1.54,4.891,4.891,0,0,1,.465-1.453,4.082,4.082,0,0,1,.93-1.22A4.937,4.937,0,0,1,3.1,17.622a9.238,9.238,0,0,1,.872-0.494,7.435,7.435,0,0,1,.988-0.291A4.825,4.825,0,0,1,6,16.721a4.3,4.3,0,0,1,.843.087,5.853,5.853,0,0,1,.9.262l4.184-4.242L6,6.9l-0.7.7L1.414,3.706,3.506,1.614,7.4,5.507l-0.7.7,5.927,5.927L16.87,7.947a4.6,4.6,0,0,1-.32-1.482A4.992,4.992,0,0,1,16.7,5.042a4.222,4.222,0,0,1,.465-1.336,5.372,5.372,0,0,1,.93-1.22,5.157,5.157,0,0,1,.784-0.639,4.418,4.418,0,0,1,.9-0.465,3.505,3.505,0,0,1,.959-0.32A5.835,5.835,0,0,1,21.751.975,5.082,5.082,0,0,1,22.3,1a3.959,3.959,0,0,1,.494.087,3.433,3.433,0,0,1,.523.145,3.281,3.281,0,0,0,.523.145l0.639,0.291L22.216,4,22.158,5.739l1.8-.058,2.266-2.208,0.29,0.639a4.966,4.966,0,0,1,.436,1.54,4.17,4.17,0,0,1-.087,1.482,4.473,4.473,0,0,1-.494,1.453,5.542,5.542,0,0,1-.959,1.278,5.106,5.106,0,0,1-.784.639,4.394,4.394,0,0,1-.9.465,3.493,3.493,0,0,1-.959.32,5.843,5.843,0,0,1-1.017.087,4.577,4.577,0,0,1-.9-0.087q-0.436-.087-0.843-0.2l-4.184,4.184,3.486,3.544L21.4,16.721l0.7,0.7-0.7.7ZM2.809,3.706l2.5,2.5,0.7-.7-2.5-2.5ZM9.84,20.266l-0.116-.29L19.776,9.923l0.29,0.116a4.236,4.236,0,0,0,.843.261,4.291,4.291,0,0,0,.843.087,3.88,3.88,0,0,0,.814-0.087c0.27-.058.542-0.125,0.813-0.2a6.443,6.443,0,0,0,.7-0.407,4.141,4.141,0,0,0,.639-0.523A4.012,4.012,0,0,0,25.383,8.3a5.651,5.651,0,0,0,.436-0.988,5.41,5.41,0,0,0,.145-1.017,3.993,3.993,0,0,0-.087-1.075L24.424,6.669l-3.254.058,0.058-3.138,1.453-1.511a4.223,4.223,0,0,0-.465-0.087,3.815,3.815,0,0,0-.465-0.029,3.866,3.866,0,0,0-.814.087,4.389,4.389,0,0,0-.813.261,2.979,2.979,0,0,0-.7.349A4.262,4.262,0,0,0,18.033,4.2a4.111,4.111,0,0,0-.407,1.191,4.208,4.208,0,0,0-.058,1.22,3.361,3.361,0,0,0,.349,1.22L18.033,8.18,7.98,18.232l-0.349-.174a6.629,6.629,0,0,0-.784-0.2A4.3,4.3,0,0,0,6,17.767a6.255,6.255,0,0,0-.872.058,2.457,2.457,0,0,0-.755.232,4.714,4.714,0,0,0-.755.407A4,4,0,0,0,2.344,19.83a3.627,3.627,0,0,0-.407.959,3.29,3.29,0,0,0-.174,1.046,4.772,4.772,0,0,0,.116,1.046L3.39,21.37H6.528L6.47,24.624,5.017,26.076a2.014,2.014,0,0,0,.494.058H6a5.716,5.716,0,0,0,.813-0.058,2.441,2.441,0,0,0,.755-0.232,4.681,4.681,0,0,0,.755-0.407,4.135,4.135,0,0,0,.639-0.523,4.214,4.214,0,0,0,1.162-2.15,4.582,4.582,0,0,0,.058-1.249,3.934,3.934,0,0,0-.349-1.249h0Zm16.1,5.869a1.064,1.064,0,0,0,.349-0.465,1.556,1.556,0,0,0,.116-0.581,1.349,1.349,0,0,0-.116-0.552,1.674,1.674,0,0,0-.349-0.494l-5.229-5.23L18.614,20.9l5.229,5.229a1.631,1.631,0,0,0,.494.349,1.332,1.332,0,0,0,.552.116,1.545,1.545,0,0,0,.581-0.116,1.055,1.055,0,0,0,.465-0.349h0Z"/>
</svg>
