<svg xmlns="http://www.w3.org/2000/svg" width="28" height="26" viewBox="0 0 28 26">
  <defs>
    <style>
      .cls-1 {
        fill: #fff;
        fill-rule: evenodd;
      }
    </style>
  </defs>
  <path id="_" data-name="" class="cls-1" d="M20.454,10.126a4.059,4.059,0,0,1,1.947.726,9.005,9.005,0,0,1,2.353,2.237A13.065,13.065,0,0,1,26.73,16.75a14.765,14.765,0,0,1,.813,5.113q0,2.963-1.366,3.515a7.325,7.325,0,0,1-1.656.552,5.353,5.353,0,0,1-1.249-.145,4.176,4.176,0,0,1-1.191-.494,6.474,6.474,0,0,1-1.307-.813,15.1,15.1,0,0,1-1.366-1.22q-0.7-.754-1.22-1.22a4.694,4.694,0,0,0-.988-0.7,3.371,3.371,0,0,0-.9-0.407,3.728,3.728,0,0,0-.959-0.116H12.436a3.728,3.728,0,0,0-.959.116,3.359,3.359,0,0,0-.9.407,4.672,4.672,0,0,0-.988.7q-0.523.466-1.22,1.22A15.218,15.218,0,0,1,7,24.478a6.523,6.523,0,0,1-1.307.813,4.187,4.187,0,0,1-1.191.494,5.358,5.358,0,0,1-1.249.145A7.3,7.3,0,0,1,1.6,25.379Q0.233,24.827.233,21.864a14.744,14.744,0,0,1,.813-5.113A13.021,13.021,0,0,1,3.022,13.09a8.978,8.978,0,0,1,2.353-2.237,4.052,4.052,0,0,1,1.947-.726,4.19,4.19,0,0,1,1.424.261A13.142,13.142,0,0,1,10.17,11q0.754,0.291,1.569.61a7.16,7.16,0,0,0,1.685.436V11a5.506,5.506,0,0,1,.407-2.063,6.624,6.624,0,0,1,1.162-1.888,5.1,5.1,0,0,1,1.772-1.307,5.717,5.717,0,0,1,2.411-.494h0.581A4.313,4.313,0,0,0,21.413,4.9a5.218,5.218,0,0,0,1.54-.988,5.194,5.194,0,0,0,1.1-1.482A5.706,5.706,0,0,0,24.638.365h0.988a6.714,6.714,0,0,1-.668,2.44,6.431,6.431,0,0,1-1.366,1.859A5.466,5.466,0,0,1,21.762,5.8a5.719,5.719,0,0,1-2,.378H19.176a4.54,4.54,0,0,0-2,.436,5.031,5.031,0,0,0-1.54,1.133,5.784,5.784,0,0,0-.93,1.569,4.663,4.663,0,0,0-.349,1.743v0.988a7.172,7.172,0,0,0,1.685-.436q0.813-.319,1.511-0.61,0.754-.349,1.482-0.61a4.186,4.186,0,0,1,1.424-.261h0Zm4.067,14.817a3.058,3.058,0,0,0,1.191-.465q0.842-.464.842-2.615a13.393,13.393,0,0,0-.784-4.823A14.4,14.4,0,0,0,24,13.671,8.464,8.464,0,0,0,21.936,11.7a3.4,3.4,0,0,0-1.482-.639,2.008,2.008,0,0,0-.581.087q-0.291.087-.581,0.2a7.1,7.1,0,0,0-.668.261,6.736,6.736,0,0,1-.668.261q-0.466.233-.93,0.436a5.306,5.306,0,0,1-.988.319,10.459,10.459,0,0,1-1.046.291,5.3,5.3,0,0,1-2.208,0,10.459,10.459,0,0,1-1.046-.291,5.285,5.285,0,0,1-.988-0.319q-0.466-.2-0.93-0.436a6.653,6.653,0,0,1-.668-0.261q-0.32-.144-0.668-0.261-0.291-.116-0.581-0.2a2.018,2.018,0,0,0-.581-0.087,3.389,3.389,0,0,0-1.482.639,8.447,8.447,0,0,0-2.063,1.976,14.363,14.363,0,0,0-1.772,3.37,13.392,13.392,0,0,0-.784,4.823q0,2.15.843,2.615a3.052,3.052,0,0,0,1.191.465A4.77,4.77,0,0,0,4.3,24.827a3.864,3.864,0,0,0,1.046-.407,7.976,7.976,0,0,0,1.1-.755,15.01,15.01,0,0,0,1.22-1.1q0.7-.7,1.278-1.22a6.158,6.158,0,0,1,1.1-.813,4.11,4.11,0,0,1,1.1-.523,4.432,4.432,0,0,1,1.278-.174h2.905A4.437,4.437,0,0,1,16.619,20a4.124,4.124,0,0,1,1.1.523,6.191,6.191,0,0,1,1.1.813q0.58,0.523,1.278,1.22a14.707,14.707,0,0,0,1.22,1.1,7.926,7.926,0,0,0,1.1.755,3.864,3.864,0,0,0,1.046.407,4.77,4.77,0,0,0,1.046.116h0ZM8.02,15.937H10v0.988H8.02V18.9H7.09V16.925H5.114V15.937H7.09V14.019H8.02v1.917ZM18.3,14.949a1.349,1.349,0,0,1,.552.116,1.1,1.1,0,0,1,.436.349,1.1,1.1,0,0,1,.349.436,1.5,1.5,0,0,1,.116.61,1.348,1.348,0,0,1-.116.552,1.1,1.1,0,0,1-.349.436,1.086,1.086,0,0,1-.436.349,1.335,1.335,0,0,1-.552.116,1.481,1.481,0,0,1-.61-0.116,1.086,1.086,0,0,1-.436-0.349,1.086,1.086,0,0,1-.349-0.436,1.332,1.332,0,0,1-.116-0.552,1.481,1.481,0,0,1,.116-0.61,1.086,1.086,0,0,1,.349-0.436,1.1,1.1,0,0,1,.436-0.349,1.5,1.5,0,0,1,.61-0.116h0Zm0,1.976a0.5,0.5,0,0,0,.465-0.465,0.515,0.515,0,0,0-.145-0.378,0.447,0.447,0,0,0-.32-0.145,0.5,0.5,0,0,0-.523.523,0.442,0.442,0,0,0,.145.32,0.509,0.509,0,0,0,.378.145h0Zm3.893-.988a1.35,1.35,0,0,1,.552.116,1.1,1.1,0,0,1,.436.349,1.1,1.1,0,0,1,.349.436,1.349,1.349,0,0,1,.116.552,1.5,1.5,0,0,1-.116.61,1.1,1.1,0,0,1-.349.436,1.086,1.086,0,0,1-.436.349,1.335,1.335,0,0,1-.552.116,1.481,1.481,0,0,1-.61-0.116,1.086,1.086,0,0,1-.436-0.349A1.085,1.085,0,0,1,20.8,18a1.481,1.481,0,0,1-.116-0.61,1.335,1.335,0,0,1,.116-0.552,1.085,1.085,0,0,1,.349-0.436,1.1,1.1,0,0,1,.436-0.349,1.5,1.5,0,0,1,.61-0.116h0Zm0,1.976a0.444,0.444,0,0,0,.32-0.145,0.512,0.512,0,0,0,.145-0.378,0.5,0.5,0,0,0-.465-0.465,0.512,0.512,0,0,0-.378.145,0.444,0.444,0,0,0-.145.32,0.5,0.5,0,0,0,.523.523h0Z"/>
</svg>
