<svg xmlns="http://www.w3.org/2000/svg" width="16" height="30" viewBox="0 0 16 30">
  <defs>
    <style>
      .cls-1 {
        fill: #fff;
        fill-rule: evenodd;
      }
    </style>
  </defs>
  <path id="_" data-name="" class="cls-1" d="M8.6,8.56a7.867,7.867,0,0,1,2.7.7,7.056,7.056,0,0,1,2.179,1.569,7.054,7.054,0,0,1,1.482,2.208,6.823,6.823,0,0,1,.552,2.731v7.379a7.063,7.063,0,0,1-2.208,5.113,7.954,7.954,0,0,1-2.353,1.511,7.41,7.41,0,0,1-5.752,0,7.93,7.93,0,0,1-2.353-1.511,6.984,6.984,0,0,1-1.627-2.324,6.915,6.915,0,0,1-.581-2.789V15.766A6.807,6.807,0,0,1,1.2,13.035a7.023,7.023,0,0,1,1.482-2.208A7.035,7.035,0,0,1,4.857,9.258a7.857,7.857,0,0,1,2.7-.7V7.05a1.321,1.321,0,0,1,.2-0.726,3.594,3.594,0,0,1,.494-0.61q0.349-.29.726-0.552t0.784-.494q0.58-.406,1.191-0.813a1.088,1.088,0,0,0,.61-0.813V0.6h0.988V3.04a1.324,1.324,0,0,1-.2.726,6.633,6.633,0,0,1-.494.668,7.562,7.562,0,0,1-.755.552q-0.407.261-.813,0.494a10.711,10.711,0,0,0-1.133.784A1.151,1.151,0,0,0,8.6,7.05V8.56Zm5.927,7.205a6.022,6.022,0,0,0-1.743-4.242A6.962,6.962,0,0,0,10.9,10.187a6.659,6.659,0,0,0-2.3-.639v6.915h5.927v-0.7Zm-12.9,0v0.7H7.558V9.548a6.654,6.654,0,0,0-2.3.639,6.934,6.934,0,0,0-1.888,1.336,6.022,6.022,0,0,0-1.743,4.242h0Zm6.45,13.6A6.348,6.348,0,0,0,12.614,27.5a6.16,6.16,0,0,0,1.395-1.947,5.683,5.683,0,0,0,.523-2.411V17.451H1.632v5.694a5.684,5.684,0,0,0,.523,2.411A6.161,6.161,0,0,0,3.549,27.5a6.348,6.348,0,0,0,4.532,1.859h0Z"/>
</svg>
