<svg xmlns="http://www.w3.org/2000/svg" width="25" height="28" viewBox="0 0 25 28">
  <defs>
    <style>
      .cls-1 {
        fill: #fff;
        fill-rule: evenodd;
      }
    </style>
  </defs>
  <path id="_" data-name="" class="cls-1" d="M24.238,4.539h0.988V5.527H24.238V7.1a2.245,2.245,0,0,1-.2.959,2.54,2.54,0,0,1-.494.726,2.738,2.738,0,0,1-.785.552,2.23,2.23,0,0,1-.959.2H5.818a2.1,2.1,0,0,1-.9-0.2,2.738,2.738,0,0,1-.784-0.552A1.8,1.8,0,0,1,3.61,8.054,2.559,2.559,0,0,1,3.436,7.1V5.527H2.971a1,1,0,0,0-.726.32,1,1,0,0,0-.32.726V10a0.908,0.908,0,0,0,.32.7,1.046,1.046,0,0,0,.726.29h9.3a1.8,1.8,0,0,1,.814.174,2.469,2.469,0,0,1,.639.465,1.419,1.419,0,0,1,.436.61,2.183,2.183,0,0,1,.145.784v3.428h1.976V28.362H11.338V16.451h1.976V13.022a1.053,1.053,0,0,0-.29-0.726,0.977,0.977,0,0,0-.755-0.32l-9.3.058a1.85,1.85,0,0,1-.784-0.174A2.276,2.276,0,0,1,1.518,11.4a1.4,1.4,0,0,1-.436-0.61A2.158,2.158,0,0,1,.937,10V6.573a2.165,2.165,0,0,1,.145-0.784,1.405,1.405,0,0,1,.436-0.61,2.294,2.294,0,0,1,.668-0.465,1.85,1.85,0,0,1,.784-0.174H3.436V3.028A2.559,2.559,0,0,1,3.61,2.069a2.322,2.322,0,0,1,.523-0.784A3.623,3.623,0,0,1,4.918.791a2.109,2.109,0,0,1,.9-0.2H21.8a2.243,2.243,0,0,1,.959.2,3.623,3.623,0,0,1,.785.494,3.627,3.627,0,0,1,.494.784,2.245,2.245,0,0,1,.2.959V4.539ZM15.289,27.374V17.438H12.326v9.936h2.963ZM23.25,7.1V3.028a1.35,1.35,0,0,0-.116-0.552,2.583,2.583,0,0,0-.291-0.494,2.583,2.583,0,0,0-.494-0.291A1.35,1.35,0,0,0,21.8,1.576H5.818a1.347,1.347,0,0,0-.552.116,1.44,1.44,0,0,0-.436.291,2.535,2.535,0,0,0-.291.494,1.335,1.335,0,0,0-.116.552V7.1a1.332,1.332,0,0,0,.116.552,1.423,1.423,0,0,0,.291.436,1.086,1.086,0,0,0,.436.349,1.332,1.332,0,0,0,.552.116H21.8a1.335,1.335,0,0,0,.552-0.116,1.642,1.642,0,0,0,.494-0.349,1.44,1.44,0,0,0,.291-0.436A1.346,1.346,0,0,0,23.25,7.1h0Z"/>
</svg>
