<svg xmlns="http://www.w3.org/2000/svg" width="25" height="26" viewBox="0 0 25 26">
  <defs>
    <style>
      .cls-1 {
        fill: #fff;
        fill-rule: evenodd;
      }
    </style>
  </defs>
  <path id="_" data-name="" class="cls-1" d="M17.338,14.964A5.371,5.371,0,0,1,21.114,13.4a5.092,5.092,0,0,1,2,.407,6.12,6.12,0,0,1,1.772,1.162l-0.7.7a4.239,4.239,0,0,0-1.453-.959,4.438,4.438,0,0,0-1.627-.32,4.36,4.36,0,0,0-1.656.32,4.3,4.3,0,0,0-1.424.959l-7.786,7.786a6.06,6.06,0,0,1-2,1.336,5.9,5.9,0,0,1-4.59,0,6.06,6.06,0,0,1-2-1.336A6.14,6.14,0,0,1,.313,21.472a5.637,5.637,0,0,1-.465-2.208A6.5,6.5,0,0,1,.255,17a5.8,5.8,0,0,1,1.22-1.976L0.429,13.976l1.627-1.627a5.31,5.31,0,0,1-.523-1.714,6.733,6.733,0,0,1,0-1.772,6.682,6.682,0,0,1,.581-1.685A6.563,6.563,0,0,1,3.16,5.667L5.949,2.936l-0.7-.7,0.7-.7L8.68,4.331l4.125-4.184,0.7,0.7L9.377,4.97l2.789,2.789,4.125-4.125,0.7,0.7L12.805,8.456l2.789,2.731-0.7.7-0.7-.7-2.731,2.789a6.563,6.563,0,0,1-1.511,1.046,6.684,6.684,0,0,1-1.685.581,6.74,6.74,0,0,1-1.772,0,5.31,5.31,0,0,1-1.714-.523L3.16,16.707l-0.988-.988a5.2,5.2,0,0,0-1.046,1.656,4.445,4.445,0,0,0-.291,1.888A5.047,5.047,0,0,0,2.288,22.75,4.98,4.98,0,0,0,4,23.883a5.256,5.256,0,0,0,1.947.378,5.046,5.046,0,0,0,3.6-1.511,0.168,0.168,0,0,1,.116-0.058Zm-13.48-8.6a4.577,4.577,0,0,0-1.046,1.6,5.189,5.189,0,0,0-.349,1.888,5.03,5.03,0,0,0,.349,1.83,4.672,4.672,0,0,0,2.644,2.644,5.18,5.18,0,0,0,1.888.349,5.036,5.036,0,0,0,1.83-.349,4.577,4.577,0,0,0,1.6-1.046L13.5,10.49,6.646,3.633ZM2.579,13.221l-0.755.755L3.16,15.313l0.755-.7a3.039,3.039,0,0,0-.378-0.32,2.979,2.979,0,0,1-.7-0.7q-0.146-.2-0.261-0.378h0Z"/>
</svg>
