<svg display="none" xmlns="http://www.w3.org/2000/svg">
<symbol id="cloud_1" viewBox="0 0 512 512">
    <path d="M448.773,235.551C450.253,227.494,451,219.276,451,211c0-74.443-60.557-135-135-135
		c-47.52,0-91.567,25.313-115.766,65.537c-32.666-10.59-66.182-6.049-93.794,12.979c-27.612,19.013-44.092,49.116-45.425,82.031
		C24.716,253.788,0,290.497,0,331c0,7.031,1.703,13.887,3.006,20.537l0.015,0.015C12.719,400.492,56.034,436,106,436h300
		c57.891,0,106-47.109,106-105C512,290.058,486.947,253.202,448.773,235.551z"/>
</symbol>
<symbol id="cloud_2" viewBox="0 0 512.001 512.001">
    <path d="M402.084,202.522c-17.981-86.517-102.693-142.076-189.21-124.096
	c-73.94,15.367-127.068,80.342-127.441,155.861c0,3.605,0.149,7.296,0.469,11.2C33.178,251.068-5.04,298.334,0.541,351.059
	c5.173,48.87,46.416,85.943,95.559,85.895h298.667c64.801-0.055,117.289-52.631,117.234-117.432
	C511.949,257.638,463.844,206.434,402.084,202.522z"/>
</symbol>
<symbol id="cloud_3" viewBox="0 0 512 512">
    <path d="m434.931 227.069c-6.724-43.037-44.034-76.069-88.931-76.069-16.89 0-33.12 4.673-47.197 13.389-21.416-35.992-59.971-58.389-102.803-58.389-66.167 0-120 53.833-120 120 0 .41 0 .835.015 1.245-42.525 7.163-76.015 44.238-76.015 88.755 0 49.629 41.371 90 91 90h330c49.629 0 91-40.371 91-90 0-44.897-34.032-82.207-77.069-88.931z"/>
</symbol>
<symbol id="cloud_4" viewBox="0 0 956.699 956.699">
	<path d="M782.699,413.199c-0.199,0-0.299,0-0.5,0c-7.699-121.7-108.898-218-232.5-218c-114.099,0-209,82-229.099,190.2 c-2.601-0.1-5.3-0.2-7.9-0.2c-85,0-156.7,56.3-180.1,133.6c-3.6-0.299-7.3-0.5-11-0.5c-67.1,0-121.6,54.4-121.6,121.6 C0,707.1,54.4,761.5,121.5,761.5c1,0,661.1,0,661.1,0c96.201,0,174.1-78,174.1-174.102 C956.699,491.299,878.9,413.199,782.699,413.199z"/>
</symbol>
</svg>